<svg width="1440" height="900" xmlns="http://www.w3.org/2000/svg">
  <defs>
    <pattern id="circuitPattern" x="0" y="0" width="100" height="100" patternUnits="userSpaceOnUse">
      <path d="M10,10 L40,10 L40,40 L70,40 L70,70 L30,70" stroke="#ffffff" stroke-width="1" fill="none" opacity="0.15"/>
      <circle cx="10" cy="10" r="3" fill="#ffffff" opacity="0.2"/>
      <circle cx="40" cy="40" r="3" fill="#ffffff" opacity="0.2"/>
      <circle cx="70" cy="70" r="3" fill="#ffffff" opacity="0.2"/>
      <path d="M30,70 L30,90 L90,90" stroke="#ffffff" stroke-width="1" fill="none" opacity="0.15"/>
      <circle cx="90" cy="90" r="3" fill="#ffffff" opacity="0.2"/>
      <path d="M90,90 L90,50 L50,50 L50,10" stroke="#ffffff" stroke-width="1" fill="none" opacity="0.15"/>
      <circle cx="50" cy="10" r="3" fill="#ffffff" opacity="0.2"/>
      <path d="M10,30 L20,30 L20,60 L50,60" stroke="#ffffff" stroke-width="1" fill="none" opacity="0.15"/>
      <circle cx="10" cy="30" r="2" fill="#ffffff" opacity="0.2"/>
      <circle cx="50" cy="60" r="2" fill="#ffffff" opacity="0.2"/>
    </pattern>
  </defs>
  <rect width="100%" height="100%" fill="url(#circuitPattern)"/>
</svg> 